<svg width="25" height="25" viewBox="0 0 25 25" fill="none" xmlns="http://www.w3.org/2000/svg">
<rect x="0.829987" y="1.16003" width="23" height="23" rx="11.5" stroke="#DEE2E6"/>
<g clip-path="url(#clip0_1_183)">
<path d="M16.2675 5.66003C16.6321 5.66003 16.942 5.78764 17.1972 6.04285C17.4524 6.29805 17.58 6.60795 17.58 6.97253V19.66L12.33 16.5975L7.07999 19.66V6.97253C7.07999 6.60795 7.20759 6.29805 7.4628 6.04285C7.71801 5.78764 8.0279 5.66003 8.39249 5.66003H16.2675ZM16.2675 17.3632V7.1366C16.2675 7.02722 16.2128 6.97253 16.1034 6.97253H8.55655C8.44717 6.97253 8.39249 7.02722 8.39249 7.1366V17.3632L12.33 15.0663L16.2675 17.3632Z" fill="#7F8C8D"/>
</g>
<defs>
<clipPath id="clip0_1_183">
<rect width="10.5" height="14" fill="white" transform="matrix(1 0 0 -1 7.07999 19.66)"/>
</clipPath>
</defs>
</svg>
