<svg width="24" height="22" viewBox="0 0 24 22" fill="none" xmlns="http://www.w3.org/2000/svg">
<rect x="0.5" y="0.5" width="23" height="21" rx="5.5" stroke="#DEE2E6"/>
<path d="M8.815 8.07667C8.85 8.59584 8.9375 9.10334 9.0775 9.5875L8.3775 10.2875C8.13833 9.5875 7.98667 8.84667 7.93417 8.07667H8.815ZM14.5667 15.0883C15.0625 15.2283 15.57 15.3158 16.0833 15.3508V16.22C15.3133 16.1675 14.5725 16.0158 13.8667 15.7825L14.5667 15.0883ZM9.375 6.91H7.33333C7.0125 6.91 6.75 7.1725 6.75 7.49334C6.75 12.9708 11.1892 17.41 16.6667 17.41C16.9875 17.41 17.25 17.1475 17.25 16.8267V14.7908C17.25 14.47 16.9875 14.2075 16.6667 14.2075C15.9433 14.2075 15.2375 14.0908 14.5842 13.875C14.5263 13.854 14.4649 13.8441 14.4033 13.8458C14.2517 13.8458 14.1058 13.9042 13.9892 14.015L12.7058 15.2983C11.0523 14.4527 9.70727 13.1077 8.86167 11.4542L10.145 10.1708C10.3083 10.0075 10.355 9.78 10.2908 9.57584C10.0695 8.90387 9.95729 8.2008 9.95833 7.49334C9.95833 7.1725 9.69583 6.91 9.375 6.91Z" fill="#7F8C8D"/>
</svg>
