<svg width="25" height="25" viewBox="0 0 25 25" fill="none" xmlns="http://www.w3.org/2000/svg">
<rect x="1.47998" y="1.16003" width="23" height="23" rx="11.5" stroke="#DEE2E6"/>
<g clip-path="url(#clip0_1_243)">
<path d="M16.9175 5.66003C17.2821 5.66003 17.592 5.78764 17.8472 6.04285C18.1024 6.29805 18.23 6.60795 18.23 6.97253V19.66L12.98 16.5975L7.72998 19.66V6.97253C7.72998 6.60795 7.85758 6.29805 8.11279 6.04285C8.368 5.78764 8.6779 5.66003 9.04248 5.66003H16.9175ZM16.9175 17.3632V7.1366C16.9175 7.02722 16.8628 6.97253 16.7534 6.97253H9.20654C9.09717 6.97253 9.04248 7.02722 9.04248 7.1366V17.3632L12.98 15.0663L16.9175 17.3632Z" fill="#7F8C8D"/>
</g>
<defs>
<clipPath id="clip0_1_243">
<rect width="10.5" height="14" fill="white" transform="matrix(1 0 0 -1 7.72998 19.66)"/>
</clipPath>
</defs>
</svg>
