<svg width="29" height="28" viewBox="0 0 29 28" fill="none" xmlns="http://www.w3.org/2000/svg">
<rect x="0.549988" y="0.590027" width="27" height="26" rx="5.5" stroke="#DEE2E6"/>
<path d="M9.95505 9.91003C10 10.5775 10.1125 11.23 10.2925 11.8525L9.39255 12.7525C9.08505 11.8525 8.89005 10.9 8.82255 9.91003H9.95505ZM17.35 18.925C17.9875 19.105 18.64 19.2175 19.3 19.2625V20.38C18.31 20.3125 17.3575 20.1175 16.45 19.8175L17.35 18.925ZM10.675 8.41003H8.05005C7.63755 8.41003 7.30005 8.74753 7.30005 9.16003C7.30005 16.2025 13.0075 21.91 20.05 21.91C20.4625 21.91 20.8 21.5725 20.8 21.16V18.5425C20.8 18.13 20.4625 17.7925 20.05 17.7925C19.12 17.7925 18.2125 17.6425 17.3725 17.365C17.2981 17.338 17.2192 17.3253 17.14 17.3275C16.945 17.3275 16.7575 17.4025 16.6075 17.545L14.9575 19.195C12.8316 18.1078 11.1023 16.3785 10.015 14.2525L11.665 12.6025C11.875 12.3925 11.935 12.1 11.8525 11.8375C11.568 10.9736 11.4237 10.0696 11.425 9.16003C11.425 8.74753 11.0875 8.41003 10.675 8.41003Z" fill="#7F8C8D"/>
</svg>
