<svg width="56" height="57" viewBox="0 0 56 57" fill="none" xmlns="http://www.w3.org/2000/svg">
<g filter="url(#filter0_dd_1_470)">
<rect x="8" y="4.35986" width="40" height="40" rx="20" fill="white"/>
<rect x="8.5" y="4.85986" width="39" height="39" rx="19.5" stroke="#DADCE0"/>
<path d="M30.8984 21.4245V20.3677C30.8984 20.2761 30.7932 20.2255 30.7221 20.2815L24.5588 25.0954C24.5064 25.1361 24.464 25.1883 24.4349 25.2478C24.4057 25.3074 24.3906 25.3729 24.3906 25.4392C24.3906 25.5056 24.4057 25.571 24.4349 25.6306C24.464 25.6902 24.5064 25.7424 24.5588 25.7831L30.7221 30.5969C30.7945 30.653 30.8984 30.6024 30.8984 30.5108V29.454C30.8984 29.387 30.867 29.3227 30.815 29.2817L25.8932 25.4399L30.815 21.5968C30.867 21.5557 30.8984 21.4915 30.8984 21.4245Z" fill="#70757A"/>
</g>
<defs>
<filter id="filter0_dd_1_470" x="0" y="0.359863" width="56" height="56" filterUnits="userSpaceOnUse" color-interpolation-filters="sRGB">
<feFlood flood-opacity="0" result="BackgroundImageFix"/>
<feColorMatrix in="SourceAlpha" type="matrix" values="0 0 0 0 0 0 0 0 0 0 0 0 0 0 0 0 0 0 127 0" result="hardAlpha"/>
<feOffset dy="4"/>
<feGaussianBlur stdDeviation="4"/>
<feComposite in2="hardAlpha" operator="out"/>
<feColorMatrix type="matrix" values="0 0 0 0 0 0 0 0 0 0 0 0 0 0 0 0 0 0 0.2 0"/>
<feBlend mode="normal" in2="BackgroundImageFix" result="effect1_dropShadow_1_470"/>
<feColorMatrix in="SourceAlpha" type="matrix" values="0 0 0 0 0 0 0 0 0 0 0 0 0 0 0 0 0 0 127 0" result="hardAlpha"/>
<feMorphology radius="1" operator="dilate" in="SourceAlpha" result="effect2_dropShadow_1_470"/>
<feOffset/>
<feComposite in2="hardAlpha" operator="out"/>
<feColorMatrix type="matrix" values="0 0 0 0 0 0 0 0 0 0 0 0 0 0 0 0 0 0 0.04 0"/>
<feBlend mode="normal" in2="effect1_dropShadow_1_470" result="effect2_dropShadow_1_470"/>
<feBlend mode="normal" in="SourceGraphic" in2="effect2_dropShadow_1_470" result="shape"/>
</filter>
</defs>
</svg>
