<svg width="56" height="57" viewBox="0 0 56 57" fill="none" xmlns="http://www.w3.org/2000/svg">
<g filter="url(#filter0_dd_1_754)">
<rect x="8" y="4.35986" width="40" height="40" rx="20" fill="white"/>
<rect x="8.5" y="4.85986" width="39" height="39" rx="19.5" stroke="#DADCE0"/>
<path d="M31.4686 25.0955L25.3053 20.2816C25.2892 20.269 25.2698 20.2611 25.2494 20.2589C25.2291 20.2567 25.2085 20.2604 25.1901 20.2694C25.1716 20.2783 25.1561 20.2924 25.1453 20.3098C25.1345 20.3272 25.1288 20.3473 25.1289 20.3678V21.4246C25.1289 21.4916 25.1604 21.5559 25.2123 21.5969L30.1342 25.44L25.2123 29.2832C25.159 29.3242 25.1289 29.3885 25.1289 29.4555V30.5123C25.1289 30.6039 25.2342 30.6545 25.3053 30.5984L31.4686 25.7846C31.5209 25.7437 31.5633 25.6914 31.5925 25.6317C31.6216 25.572 31.6368 25.5065 31.6368 25.44C31.6368 25.3736 31.6216 25.3081 31.5925 25.2483C31.5633 25.1886 31.5209 25.1364 31.4686 25.0955Z" fill="#70757A"/>
</g>
<defs>
<filter id="filter0_dd_1_754" x="0" y="0.359863" width="56" height="56" filterUnits="userSpaceOnUse" color-interpolation-filters="sRGB">
<feFlood flood-opacity="0" result="BackgroundImageFix"/>
<feColorMatrix in="SourceAlpha" type="matrix" values="0 0 0 0 0 0 0 0 0 0 0 0 0 0 0 0 0 0 127 0" result="hardAlpha"/>
<feOffset dy="4"/>
<feGaussianBlur stdDeviation="4"/>
<feComposite in2="hardAlpha" operator="out"/>
<feColorMatrix type="matrix" values="0 0 0 0 0 0 0 0 0 0 0 0 0 0 0 0 0 0 0.2 0"/>
<feBlend mode="normal" in2="BackgroundImageFix" result="effect1_dropShadow_1_754"/>
<feColorMatrix in="SourceAlpha" type="matrix" values="0 0 0 0 0 0 0 0 0 0 0 0 0 0 0 0 0 0 127 0" result="hardAlpha"/>
<feMorphology radius="1" operator="dilate" in="SourceAlpha" result="effect2_dropShadow_1_754"/>
<feOffset/>
<feComposite in2="hardAlpha" operator="out"/>
<feColorMatrix type="matrix" values="0 0 0 0 0 0 0 0 0 0 0 0 0 0 0 0 0 0 0.04 0"/>
<feBlend mode="normal" in2="effect1_dropShadow_1_754" result="effect2_dropShadow_1_754"/>
<feBlend mode="normal" in="SourceGraphic" in2="effect2_dropShadow_1_754" result="shape"/>
</filter>
</defs>
</svg>
