<svg width="10" height="15" viewBox="0 0 10 15" fill="none" xmlns="http://www.w3.org/2000/svg">
<g clip-path="url(#clip0_1_865)">
<path d="M8.88794 7.69507L3.58325 12.9998C3.45564 13.1274 3.3007 13.1912 3.1184 13.1912C2.93611 13.1912 2.78116 13.1274 2.65356 12.9998L2.052 12.3982C1.92439 12.2706 1.85603 12.1156 1.84692 11.9333C1.83781 11.7511 1.89705 11.5961 2.02465 11.4685L6.26294 7.23022L2.02465 2.99194C1.89705 2.86434 1.83781 2.70939 1.84692 2.5271C1.85603 2.34481 1.92439 2.18986 2.052 2.06226L2.65356 1.46069C2.78116 1.33309 2.93611 1.26929 3.1184 1.26929C3.3007 1.26929 3.45564 1.33309 3.58325 1.46069L8.88794 6.76538C9.03377 6.89298 9.10669 7.04793 9.10669 7.23022C9.10669 7.41252 9.03377 7.56746 8.88794 7.69507Z" fill="#475F7B"/>
</g>
<defs>
<clipPath id="clip0_1_865">
<rect width="9.06" height="14" fill="white" transform="matrix(1 0 0 -1 0.939941 14.2302)"/>
</clipPath>
</defs>
</svg>
