<svg width="10" height="15" viewBox="0 0 10 15" fill="none" xmlns="http://www.w3.org/2000/svg">
<g clip-path="url(#clip0_1_857)">
<path d="M8.88794 8.10498L3.58325 13.4097C3.45564 13.5373 3.3007 13.6011 3.1184 13.6011C2.93611 13.6011 2.78116 13.5373 2.65356 13.4097L2.052 12.8081C1.92439 12.6805 1.85603 12.5256 1.84692 12.3433C1.83781 12.161 1.89705 12.006 2.02465 11.8784L6.26294 7.64014L2.02465 3.40186C1.89705 3.27425 1.83781 3.1193 1.84692 2.93701C1.85603 2.75472 1.92439 2.59977 2.052 2.47217L2.65356 1.87061C2.78116 1.743 2.93611 1.6792 3.1184 1.6792C3.3007 1.6792 3.45564 1.743 3.58325 1.87061L8.88794 7.17529C9.03377 7.3029 9.10669 7.45785 9.10669 7.64014C9.10669 7.82243 9.03377 7.97738 8.88794 8.10498Z" fill="#475F7B"/>
</g>
<defs>
<clipPath id="clip0_1_857">
<rect width="9.06" height="14" fill="white" transform="matrix(1 0 0 -1 0.939941 14.6401)"/>
</clipPath>
</defs>
</svg>
