<svg width="20" height="16" viewBox="0 0 20 16" fill="none" xmlns="http://www.w3.org/2000/svg">
<g clip-path="url(#clip0_1_69)">
<path fill-rule="evenodd" clip-rule="evenodd" d="M4.04312 4.38564C4.08667 4.34198 4.13839 4.30735 4.19534 4.28372C4.25229 4.26009 4.31334 4.24792 4.375 4.24792C4.43666 4.24792 4.49771 4.26009 4.55466 4.28372C4.6116 4.30735 4.66333 4.34198 4.70687 4.38564L10 9.6797L15.2931 4.38564C15.3367 4.34206 15.3884 4.30748 15.4454 4.2839C15.5023 4.26031 15.5634 4.24817 15.625 4.24817C15.6866 4.24817 15.7477 4.26031 15.8046 4.2839C15.8616 4.30748 15.9133 4.34206 15.9569 4.38564C16.0005 4.42922 16.035 4.48096 16.0586 4.5379C16.0822 4.59485 16.0943 4.65588 16.0943 4.71751C16.0943 4.77915 16.0822 4.84018 16.0586 4.89712C16.035 4.95407 16.0005 5.00581 15.9569 5.04939L10.3319 10.6744C10.2883 10.718 10.2366 10.7527 10.1797 10.7763C10.1227 10.7999 10.0617 10.8121 10 10.8121C9.93834 10.8121 9.87729 10.7999 9.82034 10.7763C9.76339 10.7527 9.71167 10.718 9.66812 10.6744L4.04312 5.04939C3.99947 5.00584 3.96484 4.95412 3.94121 4.89717C3.91757 4.84022 3.90541 4.77917 3.90541 4.71751C3.90541 4.65586 3.91757 4.5948 3.94121 4.53786C3.96484 4.48091 3.99947 4.42918 4.04312 4.38564Z" fill="#212529"/>
</g>
<defs>
<clipPath id="clip0_1_69">
<rect width="20" height="15" fill="white" transform="translate(0 0.0300293)"/>
</clipPath>
</defs>
</svg>
