<svg width="20" height="16" viewBox="0 0 20 16" fill="none" xmlns="http://www.w3.org/2000/svg">
<g clip-path="url(#clip0_1_148)">
<path fill-rule="evenodd" clip-rule="evenodd" d="M4.04312 4.96559C4.08667 4.92194 4.13839 4.88731 4.19534 4.86368C4.25229 4.84004 4.31334 4.82788 4.375 4.82788C4.43666 4.82788 4.49771 4.84004 4.55466 4.86368C4.6116 4.88731 4.66333 4.92194 4.70687 4.96559L10 10.2597L15.2931 4.96559C15.3367 4.92201 15.3884 4.88744 15.4454 4.86385C15.5023 4.84027 15.5634 4.82813 15.625 4.82813C15.6866 4.82813 15.7477 4.84027 15.8046 4.86385C15.8616 4.88744 15.9133 4.92201 15.9569 4.96559C16.0005 5.00918 16.035 5.06092 16.0586 5.11786C16.0822 5.1748 16.0943 5.23583 16.0943 5.29747C16.0943 5.3591 16.0822 5.42014 16.0586 5.47708C16.035 5.53402 16.0005 5.58576 15.9569 5.62934L10.3319 11.2543C10.2883 11.298 10.2366 11.3326 10.1797 11.3563C10.1227 11.3799 10.0617 11.3921 10 11.3921C9.93834 11.3921 9.87729 11.3799 9.82034 11.3563C9.76339 11.3326 9.71167 11.298 9.66812 11.2543L4.04312 5.62934C3.99947 5.5858 3.96484 5.53407 3.94121 5.47713C3.91757 5.42018 3.90541 5.35913 3.90541 5.29747C3.90541 5.23581 3.91757 5.17476 3.94121 5.11781C3.96484 5.06086 3.99947 5.00914 4.04312 4.96559Z" fill="#212529"/>
</g>
<defs>
<clipPath id="clip0_1_148">
<rect width="20" height="15" fill="white" transform="translate(0 0.609985)"/>
</clipPath>
</defs>
</svg>
