<svg width="20" height="16" viewBox="0 0 20 16" fill="none" xmlns="http://www.w3.org/2000/svg">
<g clip-path="url(#clip0_1_126)">
<path fill-rule="evenodd" clip-rule="evenodd" d="M4.04312 4.37563C4.08667 4.33197 4.13839 4.29734 4.19534 4.27371C4.25229 4.25008 4.31334 4.23792 4.375 4.23792C4.43666 4.23792 4.49771 4.25008 4.55466 4.27371C4.6116 4.29734 4.66333 4.33197 4.70687 4.37563L10 9.66969L15.2931 4.37563C15.3367 4.33205 15.3884 4.29747 15.4454 4.27389C15.5023 4.2503 15.5634 4.23816 15.625 4.23816C15.6866 4.23816 15.7477 4.2503 15.8046 4.27389C15.8616 4.29747 15.9133 4.33205 15.9569 4.37563C16.0005 4.41921 16.035 4.47095 16.0586 4.52789C16.0822 4.58484 16.0943 4.64587 16.0943 4.7075C16.0943 4.76914 16.0822 4.83017 16.0586 4.88711C16.035 4.94406 16.0005 4.9958 15.9569 5.03938L10.3319 10.6644C10.2883 10.708 10.2366 10.7427 10.1797 10.7663C10.1227 10.7899 10.0617 10.8021 10 10.8021C9.93834 10.8021 9.87729 10.7899 9.82034 10.7663C9.76339 10.7427 9.71167 10.708 9.66812 10.6644L4.04312 5.03938C3.99947 4.99584 3.96484 4.94411 3.94121 4.88716C3.91757 4.83021 3.90541 4.76916 3.90541 4.7075C3.90541 4.64585 3.91757 4.58479 3.94121 4.52785C3.96484 4.4709 3.99947 4.41917 4.04312 4.37563Z" fill="#212529"/>
</g>
<defs>
<clipPath id="clip0_1_126">
<rect width="20" height="15" fill="white" transform="translate(0 0.0200195)"/>
</clipPath>
</defs>
</svg>
