<svg width="20" height="16" viewBox="0 0 20 16" fill="none" xmlns="http://www.w3.org/2000/svg">
<g clip-path="url(#clip0_1_40)">
<path fill-rule="evenodd" clip-rule="evenodd" d="M4.04312 4.58559C4.08667 4.54194 4.13839 4.5073 4.19534 4.48367C4.25229 4.46004 4.31334 4.44788 4.375 4.44788C4.43666 4.44788 4.49771 4.46004 4.55466 4.48367C4.6116 4.5073 4.66333 4.54194 4.70687 4.58559L10 9.87965L15.2931 4.58559C15.3367 4.54201 15.3884 4.50743 15.4454 4.48385C15.5023 4.46026 15.5634 4.44812 15.625 4.44812C15.6866 4.44812 15.7477 4.46026 15.8046 4.48385C15.8616 4.50743 15.9133 4.54201 15.9569 4.58559C16.0005 4.62917 16.035 4.68091 16.0586 4.73785C16.0822 4.7948 16.0943 4.85583 16.0943 4.91746C16.0943 4.9791 16.0822 5.04013 16.0586 5.09707C16.035 5.15402 16.0005 5.20576 15.9569 5.24934L10.3319 10.8743C10.2883 10.918 10.2366 10.9526 10.1797 10.9763C10.1227 10.9999 10.0617 11.0121 10 11.0121C9.93834 11.0121 9.87729 10.9999 9.82034 10.9763C9.76339 10.9526 9.71167 10.918 9.66812 10.8743L4.04312 5.24934C3.99947 5.2058 3.96484 5.15407 3.94121 5.09712C3.91757 5.04017 3.90541 4.97912 3.90541 4.91746C3.90541 4.85581 3.91757 4.79476 3.94121 4.73781C3.96484 4.68086 3.99947 4.62913 4.04312 4.58559Z" fill="#212529"/>
</g>
<defs>
<clipPath id="clip0_1_40">
<rect width="20" height="15" fill="white" transform="translate(0 0.22998)"/>
</clipPath>
</defs>
</svg>
