<svg width="20" height="16" viewBox="0 0 20 16" fill="none" xmlns="http://www.w3.org/2000/svg">
<g clip-path="url(#clip0_1_80)">
<path fill-rule="evenodd" clip-rule="evenodd" d="M4.04312 5.18563C4.08667 5.14197 4.13839 5.10734 4.19534 5.08371C4.25229 5.06008 4.31334 5.04791 4.375 5.04791C4.43666 5.04791 4.49771 5.06008 4.55466 5.08371C4.6116 5.10734 4.66333 5.14197 4.70687 5.18563L10 10.4797L15.2931 5.18563C15.3367 5.14204 15.3884 5.10747 15.4454 5.08388C15.5023 5.0603 15.5634 5.04816 15.625 5.04816C15.6866 5.04816 15.7477 5.0603 15.8046 5.08388C15.8616 5.10747 15.9133 5.14204 15.9569 5.18563C16.0005 5.22921 16.035 5.28095 16.0586 5.33789C16.0822 5.39483 16.0943 5.45587 16.0943 5.5175C16.0943 5.57914 16.0822 5.64017 16.0586 5.69711C16.035 5.75405 16.0005 5.80579 15.9569 5.84938L10.3319 11.4744C10.2883 11.518 10.2366 11.5527 10.1797 11.5763C10.1227 11.5999 10.0617 11.6121 10 11.6121C9.93834 11.6121 9.87729 11.5999 9.82034 11.5763C9.76339 11.5527 9.71167 11.518 9.66812 11.4744L4.04312 5.84938C3.99947 5.80583 3.96484 5.75411 3.94121 5.69716C3.91757 5.64021 3.90541 5.57916 3.90541 5.5175C3.90541 5.45584 3.91757 5.39479 3.94121 5.33784C3.96484 5.2809 3.99947 5.22917 4.04312 5.18563Z" fill="#212529"/>
</g>
<defs>
<clipPath id="clip0_1_80">
<rect width="20" height="15" fill="white" transform="translate(0 0.830017)"/>
</clipPath>
</defs>
</svg>
