<svg width="20" height="16" viewBox="0 0 20 16" fill="none" xmlns="http://www.w3.org/2000/svg">
<g clip-path="url(#clip0_1_104)">
<path fill-rule="evenodd" clip-rule="evenodd" d="M4.04312 4.77565C4.08667 4.732 4.13839 4.69737 4.19534 4.67373C4.25229 4.6501 4.31334 4.63794 4.375 4.63794C4.43666 4.63794 4.49771 4.6501 4.55466 4.67373C4.6116 4.69737 4.66333 4.732 4.70687 4.77565L10 10.0697L15.2931 4.77565C15.3367 4.73207 15.3884 4.6975 15.4454 4.67391C15.5023 4.65032 15.5634 4.63818 15.625 4.63818C15.6866 4.63818 15.7477 4.65032 15.8046 4.67391C15.8616 4.6975 15.9133 4.73207 15.9569 4.77565C16.0005 4.81923 16.035 4.87097 16.0586 4.92792C16.0822 4.98486 16.0943 5.04589 16.0943 5.10753C16.0943 5.16916 16.0822 5.23019 16.0586 5.28714C16.035 5.34408 16.0005 5.39582 15.9569 5.4394L10.3319 11.0644C10.2883 11.1081 10.2366 11.1427 10.1797 11.1663C10.1227 11.19 10.0617 11.2021 10 11.2021C9.93834 11.2021 9.87729 11.19 9.82034 11.1663C9.76339 11.1427 9.71167 11.1081 9.66812 11.0644L4.04312 5.4394C3.99947 5.39586 3.96484 5.34413 3.94121 5.28718C3.91757 5.23024 3.90541 5.16918 3.90541 5.10753C3.90541 5.04587 3.91757 4.98482 3.94121 4.92787C3.96484 4.87092 3.99947 4.81919 4.04312 4.77565Z" fill="#212529"/>
</g>
<defs>
<clipPath id="clip0_1_104">
<rect width="20" height="15" fill="white" transform="translate(0 0.420044)"/>
</clipPath>
</defs>
</svg>
