<svg width="50" height="31" viewBox="0 0 50 31" fill="none" xmlns="http://www.w3.org/2000/svg">
<rect x="16.5" y="0.969971" width="33" height="29" rx="5.5" stroke="#DEE2E6"/>
<path d="M40.2682 12.9656C40.0937 12.3087 39.5797 11.7913 38.927 11.6157C37.7439 11.2966 33 11.2966 33 11.2966C33 11.2966 28.2561 11.2966 27.073 11.6157C26.4203 11.7913 25.9063 12.3087 25.7318 12.9656C25.4148 14.1564 25.4148 16.6407 25.4148 16.6407C25.4148 16.6407 25.4148 19.1251 25.7318 20.3159C25.9063 20.9728 26.4203 21.4687 27.073 21.6442C28.2561 21.9633 33 21.9633 33 21.9633C33 21.9633 37.7439 21.9633 38.927 21.6442C39.5797 21.4687 40.0937 20.9728 40.2682 20.3159C40.5852 19.1251 40.5852 16.6407 40.5852 16.6407C40.5852 16.6407 40.5852 14.1564 40.2682 12.9656ZM31.4485 18.8964V14.3851L35.4134 16.6408L31.4485 18.8964Z" fill="#7F8C8D"/>
</svg>
