<svg width="37" height="21" viewBox="0 0 37 21" fill="none" xmlns="http://www.w3.org/2000/svg">
<path d="M14.1372 18.44H10.509V6.75645H14.1372V18.44ZM12.3211 5.16269C11.161 5.16269 10.22 4.20176 10.22 3.0416C10.22 2.48434 10.4413 1.94989 10.8354 1.55585C11.2294 1.1618 11.7639 0.94043 12.3211 0.94043C12.8784 0.94043 13.4128 1.1618 13.8069 1.55585C14.2009 1.94989 14.4223 2.48434 14.4223 3.0416C14.4223 4.20176 13.4809 5.16269 12.3211 5.16269ZM27.7161 18.44H24.0958V12.7525C24.0958 11.3971 24.0684 9.65879 22.2094 9.65879C20.3231 9.65879 20.034 11.1314 20.034 12.6549V18.44H16.4098V6.75645H19.8895V8.3502H19.9403C20.4247 7.43223 21.6079 6.46348 23.3731 6.46348C27.045 6.46348 27.72 8.88145 27.72 12.0221V18.44H27.7161Z" fill="white"/>
</svg>
