<svg width="53" height="21" viewBox="0 0 53 21" fill="none" xmlns="http://www.w3.org/2000/svg">
<path d="M35.4452 6.35965C35.2271 5.53847 34.5846 4.89174 33.7687 4.67226C32.2899 4.27344 26.36 4.27344 26.36 4.27344C26.36 4.27344 20.4301 4.27344 18.9513 4.67226C18.1354 4.89177 17.4928 5.53847 17.2747 6.35965C16.8785 7.84809 16.8785 10.9536 16.8785 10.9536C16.8785 10.9536 16.8785 14.0591 17.2747 15.5475C17.4928 16.3687 18.1354 16.9885 18.9513 17.208C20.4301 17.6068 26.36 17.6068 26.36 17.6068C26.36 17.6068 32.2898 17.6068 33.7687 17.208C34.5846 16.9885 35.2271 16.3687 35.4452 15.5475C35.8415 14.0591 35.8415 10.9536 35.8415 10.9536C35.8415 10.9536 35.8415 7.84809 35.4452 6.35965ZM24.4206 13.7731V8.13403L29.3768 10.9536L24.4206 13.7731Z" fill="white"/>
</svg>
