<svg width="50" height="31" viewBox="0 0 50 31" fill="none" xmlns="http://www.w3.org/2000/svg">
<rect x="16.5" y="0.969971" width="33" height="29" rx="5.5" stroke="#DEE2E6"/>
<path d="M29.1337 22.6299H26.2313V13.2831H29.1337V22.6299ZM27.6809 12.0081C26.7528 12.0081 26 11.2393 26 10.3112C26 9.86537 26.1771 9.43782 26.4923 9.12258C26.8076 8.80735 27.2351 8.63025 27.6809 8.63025C28.1267 8.63025 28.5543 8.80735 28.8695 9.12258C29.1848 9.43782 29.3619 9.86537 29.3619 10.3112C29.3619 11.2393 28.6088 12.0081 27.6809 12.0081ZM39.9969 22.6299H37.1006V18.0799C37.1006 16.9956 37.0787 15.6049 35.5916 15.6049C34.0825 15.6049 33.8513 16.7831 33.8513 18.0018V22.6299H30.9519V13.2831H33.7356V14.5581H33.7762C34.1637 13.8237 35.1103 13.0487 36.5225 13.0487C39.46 13.0487 40 14.9831 40 17.4956V22.6299H39.9969Z" fill="#7F8C8D"/>
</svg>
