<svg width="53" height="21" viewBox="0 0 53 21" fill="none" xmlns="http://www.w3.org/2000/svg">
<path d="M26.5839 6.44775C24.0995 6.44775 22.0956 8.45166 22.0956 10.936C22.0956 13.4204 24.0995 15.4243 26.5839 15.4243C29.0682 15.4243 31.0721 13.4204 31.0721 10.936C31.0721 8.45166 29.0682 6.44775 26.5839 6.44775ZM26.5839 13.854C24.9784 13.854 23.6659 12.5454 23.6659 10.936C23.6659 9.32666 24.9745 8.01807 26.5839 8.01807C28.1932 8.01807 29.5018 9.32666 29.5018 10.936C29.5018 12.5454 28.1893 13.854 26.5839 13.854ZM32.3026 6.26416C32.3026 6.84619 31.8339 7.31104 31.2557 7.31104C30.6737 7.31104 30.2089 6.84229 30.2089 6.26416C30.2089 5.68604 30.6776 5.21728 31.2557 5.21728C31.8339 5.21728 32.3026 5.68604 32.3026 6.26416ZM35.2753 7.32666C35.2089 5.92432 34.8885 4.68213 33.8612 3.65869C32.8378 2.63525 31.5956 2.31494 30.1932 2.24463C28.7479 2.1626 24.4159 2.1626 22.9706 2.24463C21.5721 2.31104 20.33 2.63135 19.3026 3.65479C18.2753 4.67822 17.9589 5.92041 17.8885 7.32275C17.8065 8.76807 17.8065 13.1001 17.8885 14.5454C17.955 15.9478 18.2753 17.1899 19.3026 18.2134C20.33 19.2368 21.5682 19.5571 22.9706 19.6274C24.4159 19.7095 28.7479 19.7095 30.1932 19.6274C31.5956 19.561 32.8378 19.2407 33.8612 18.2134C34.8846 17.1899 35.205 15.9478 35.2753 14.5454C35.3573 13.1001 35.3573 8.77197 35.2753 7.32666ZM33.4081 16.0962C33.1034 16.8618 32.5136 17.4517 31.744 17.7603C30.5917 18.2173 27.8573 18.1118 26.5839 18.1118C25.3104 18.1118 22.5721 18.2134 21.4237 17.7603C20.6581 17.4556 20.0682 16.8657 19.7596 16.0962C19.3026 14.9438 19.4081 12.2095 19.4081 10.936C19.4081 9.6626 19.3065 6.92432 19.7596 5.77588C20.0643 5.01025 20.6542 4.42041 21.4237 4.11182C22.576 3.65479 25.3104 3.76025 26.5839 3.76025C27.8573 3.76025 30.5956 3.65869 31.744 4.11182C32.5096 4.4165 33.0995 5.00635 33.4081 5.77588C33.8651 6.92822 33.7596 9.6626 33.7596 10.936C33.7596 12.2095 33.8651 14.9478 33.4081 16.0962Z" fill="white"/>
</svg>
