<svg width="50" height="31" viewBox="0 0 50 31" fill="none" xmlns="http://www.w3.org/2000/svg">
<rect x="16.5" y="0.969971" width="33" height="29" rx="5.5" stroke="#DEE2E6"/>
<path d="M33 14.5471C31.8531 14.5471 30.9171 15.4831 30.9171 16.6299C30.9171 17.7768 31.8531 18.7127 33 18.7127C34.1468 18.7127 35.0828 17.7768 35.0828 16.6299C35.0828 15.4831 34.1468 14.5471 33 14.5471ZM39.2468 16.6299C39.2468 15.7674 39.2546 14.9127 39.2062 14.0518C39.1578 13.0518 38.9296 12.1643 38.1984 11.4331C37.4656 10.7002 36.5796 10.4737 35.5796 10.4252C34.7171 10.3768 33.8625 10.3846 33.0015 10.3846C32.139 10.3846 31.2843 10.3768 30.4234 10.4252C29.4234 10.4737 28.5359 10.7018 27.8046 11.4331C27.0718 12.1659 26.8453 13.0518 26.7968 14.0518C26.7484 14.9143 26.7562 15.769 26.7562 16.6299C26.7562 17.4909 26.7484 18.3471 26.7968 19.2081C26.8453 20.2081 27.0734 21.0956 27.8046 21.8268C28.5375 22.5596 29.4234 22.7862 30.4234 22.8346C31.2859 22.8831 32.1406 22.8752 33.0015 22.8752C33.864 22.8752 34.7187 22.8831 35.5796 22.8346C36.5796 22.7862 37.4671 22.5581 38.1984 21.8268C38.9312 21.094 39.1578 20.2081 39.2062 19.2081C39.2562 18.3471 39.2468 17.4924 39.2468 16.6299ZM33 19.8346C31.2265 19.8346 29.7953 18.4034 29.7953 16.6299C29.7953 14.8565 31.2265 13.4252 33 13.4252C34.7734 13.4252 36.2046 14.8565 36.2046 16.6299C36.2046 18.4034 34.7734 19.8346 33 19.8346ZM36.3359 14.0424C35.9218 14.0424 35.5875 13.7081 35.5875 13.294C35.5875 12.8799 35.9218 12.5456 36.3359 12.5456C36.75 12.5456 37.0843 12.8799 37.0843 13.294C37.0845 13.3923 37.0652 13.4897 37.0276 13.5806C36.99 13.6714 36.9349 13.754 36.8654 13.8235C36.7959 13.893 36.7133 13.9481 36.6225 13.9857C36.5316 14.0233 36.4342 14.0426 36.3359 14.0424Z" fill="#7F8C8D"/>
</svg>
