<svg width="50" height="31" viewBox="0 0 50 31" fill="none" xmlns="http://www.w3.org/2000/svg">
<rect x="16.5" y="0.969971" width="33" height="29" rx="5.5" stroke="#DEE2E6"/>
<path d="M28 9.62994C26.8969 9.62994 26 10.5268 26 11.6299V21.6299C26 22.7331 26.8969 23.6299 28 23.6299H38C39.1031 23.6299 40 22.7331 40 21.6299V11.6299C40 10.5268 39.1031 9.62994 38 9.62994H28ZM37.2844 12.2549L34.0406 15.9612L37.8562 21.0049H34.8687L32.5312 17.9456L29.8531 21.0049H28.3688L31.8375 17.0393L28.1781 12.2549H31.2406L33.3562 15.0518L35.8 12.2549H37.2844ZM36.1031 20.1174L30.7937 13.0956H29.9094L35.2781 20.1174H36.1H36.1031Z" fill="#7F8C8D"/>
</svg>
