<svg width="21" height="21" viewBox="0 0 21 21" fill="none" xmlns="http://www.w3.org/2000/svg">
<path d="M16.9635 13.3566C15.9598 13.3566 14.9621 13.2021 14.0054 12.8985C13.7136 12.815 13.3804 12.8565 13.1721 13.1068L11.3385 14.9399C8.96344 13.7318 7.04695 11.8149 5.83844 9.43979L7.67199 7.6067C7.88027 7.39838 7.96348 7.06514 7.88027 6.77338C7.5468 5.81514 7.3802 4.81494 7.3802 3.77326C7.3802 3.3151 7.00523 2.93994 6.54688 2.93994H3.6302C3.17184 2.93994 2.79688 3.3151 2.79688 3.77326C2.79688 11.6065 9.13031 17.9399 16.9635 17.9399C17.4217 17.9399 17.7969 17.5648 17.7969 17.1066V14.1899C17.7969 13.7318 17.4217 13.3566 16.9635 13.3566Z" fill="#7F8C8D"/>
</svg>
