<svg width="21" height="21" viewBox="0 0 21 21" fill="none" xmlns="http://www.w3.org/2000/svg">
<path d="M19.918 7.89307C20.0703 7.77197 20.2969 7.88525 20.2969 8.07666V16.0649C20.2969 17.1001 19.457 17.9399 18.4219 17.9399H2.17188C1.13672 17.9399 0.296875 17.1001 0.296875 16.0649V8.08057C0.296875 7.88525 0.519531 7.77588 0.675781 7.89697C1.55078 8.57666 2.71094 9.43994 6.69531 12.3345C7.51953 12.936 8.91016 14.2017 10.2969 14.1938C11.6914 14.2056 13.1094 12.9126 13.9023 12.3345C17.8867 9.43994 19.043 8.57275 19.918 7.89307ZM10.2969 12.9399C11.2031 12.9556 12.5078 11.7993 13.1641 11.3228C18.3477 7.56104 18.7422 7.23291 19.9375 6.29541C20.1641 6.11963 20.2969 5.84619 20.2969 5.55713V4.81494C20.2969 3.77979 19.457 2.93994 18.4219 2.93994H2.17188C1.13672 2.93994 0.296875 3.77979 0.296875 4.81494V5.55713C0.296875 5.84619 0.429687 6.11572 0.65625 6.29541C1.85156 7.229 2.24609 7.56104 7.42969 11.3228C8.08594 11.7993 9.39062 12.9556 10.2969 12.9399Z" fill="#7F8C8D"/>
</svg>
