<svg width="19" height="19" viewBox="0 0 19 19" fill="none" xmlns="http://www.w3.org/2000/svg">
<path fill-rule="evenodd" clip-rule="evenodd" d="M12.59 7.03C12.59 8.68682 11.2468 10.03 9.58997 10.03C7.93311 10.03 6.58997 8.68682 6.58997 7.03C6.58997 5.37314 7.93311 4.03 9.58997 4.03C11.2468 4.03 12.59 5.37314 12.59 7.03ZM11.09 7.03C11.09 7.85845 10.4184 8.53 9.58997 8.53C8.76152 8.53 8.08997 7.85845 8.08997 7.03C8.08997 6.20157 8.76152 5.53 9.58997 5.53C10.4184 5.53 11.09 6.20157 11.09 7.03Z" fill="#212529"/>
<path fill-rule="evenodd" clip-rule="evenodd" d="M9.58997 1.03C5.03362 1.03 1.33997 4.72365 1.33997 9.28C1.33997 13.8363 5.03362 17.53 9.58997 17.53C14.1463 17.53 17.84 13.8363 17.84 9.28C17.84 4.72365 14.1463 1.03 9.58997 1.03ZM2.83997 9.28C2.83997 10.8476 3.37438 12.2905 4.27095 13.4363C5.5043 11.8217 7.44967 10.78 9.63834 10.78C11.7986 10.78 13.7219 11.7948 14.9573 13.3737C15.8247 12.2382 16.34 10.8193 16.34 9.28C16.34 5.55208 13.3179 2.53 9.58997 2.53C5.86205 2.53 2.83997 5.55208 2.83997 9.28ZM9.58997 16.03C7.97729 16.03 6.4967 15.4644 5.33572 14.5208C6.28511 13.1659 7.85826 12.28 9.63834 12.28C11.3963 12.28 12.9524 13.1441 13.9053 14.4707C12.7354 15.4443 11.231 16.03 9.58997 16.03Z" fill="#212529"/>
</svg>
