<svg width="210" height="22" viewBox="0 0 210 22" fill="none" xmlns="http://www.w3.org/2000/svg">
<mask id="path-1-inside-1_1_1160" fill="white">
<path d="M0.200012 1H209.2V21H0.200012V1Z"/>
</mask>
<path d="M208.2 1V21H210.2V1H208.2Z" fill="#D9DEDF" mask="url(#path-1-inside-1_1_1160)"/>
<rect x="0.700012" y="0.5" width="23" height="21" rx="5.5" stroke="#DEE2E6"/>
<path d="M15.4577 13.035L15.8466 10.5013H13.4154V8.85715C13.4154 8.16399 13.755 7.48832 14.8439 7.48832H15.9491V5.33118C15.9491 5.33118 14.9461 5.16 13.9872 5.16C11.9851 5.16 10.6764 6.37352 10.6764 8.57032V10.5013H8.4509V13.035H10.6764V19.16H13.4154V13.035H15.4577Z" fill="#7F8C8D"/>
<rect x="40.7" y="0.5" width="23" height="21" rx="5.5" stroke="#DEE2E6"/>
<path d="M47.825 6.035C46.8598 6.035 46.075 6.81977 46.075 7.785V16.535C46.075 17.5002 46.8598 18.285 47.825 18.285H56.575C57.5402 18.285 58.325 17.5002 58.325 16.535V7.785C58.325 6.81977 57.5402 6.035 56.575 6.035H47.825ZM55.9488 8.33188L53.1106 11.5748L56.4492 15.9881H53.8352L51.7899 13.3112L49.4465 15.9881H48.1477L51.1828 12.5182L47.9809 8.33188H50.6606L52.5117 10.7791L54.65 8.33188H55.9488ZM54.9152 15.2116L50.2695 9.06743H49.4957L54.1934 15.2116H54.9125H54.9152Z" fill="#7F8C8D"/>
<rect x="80.7" y="0.5" width="23" height="21" rx="5.5" stroke="#DEE2E6"/>
<path d="M88.817 17.41H86.2774V9.23149H88.817V17.41ZM87.5458 8.11586C86.7337 8.11586 86.075 7.44321 86.075 6.6311C86.075 6.24101 86.23 5.8669 86.5058 5.59107C86.7816 5.31524 87.1557 5.16028 87.5458 5.16028C87.9359 5.16028 88.31 5.31524 88.5859 5.59107C88.8617 5.8669 89.0167 6.24101 89.0167 6.6311C89.0167 7.44321 88.3577 8.11586 87.5458 8.11586ZM98.3223 17.41H95.7881V13.4288C95.7881 12.4799 95.7689 11.2631 94.4676 11.2631C93.1472 11.2631 92.9449 12.294 92.9449 13.3604V17.41H90.4079V9.23149H92.8437V10.3471H92.8792C93.2183 9.70454 94.0465 9.02641 95.2822 9.02641C97.8525 9.02641 98.325 10.719 98.325 12.9174V17.41H98.3223Z" fill="#7F8C8D"/>
<rect x="120.7" y="0.5" width="23" height="21" rx="5.5" stroke="#DEE2E6"/>
<path d="M138.56 8.95369C138.407 8.37886 137.957 7.92615 137.386 7.77251C136.351 7.49334 132.2 7.49334 132.2 7.49334C132.2 7.49334 128.049 7.49334 127.014 7.77251C126.443 7.92617 125.993 8.37886 125.84 8.95369C125.563 9.9956 125.563 12.1694 125.563 12.1694C125.563 12.1694 125.563 14.3433 125.84 15.3852C125.993 15.96 126.443 16.3939 127.014 16.5475C128.049 16.8267 132.2 16.8267 132.2 16.8267C132.2 16.8267 136.351 16.8267 137.386 16.5475C137.957 16.3939 138.407 15.96 138.56 15.3852C138.837 14.3433 138.837 12.1694 138.837 12.1694C138.837 12.1694 138.837 9.9956 138.56 8.95369ZM130.842 14.1431V10.1958L134.312 12.1695L130.842 14.1431Z" fill="#7F8C8D"/>
<rect x="160.7" y="0.5" width="23" height="21" rx="5.5" stroke="#DEE2E6"/>
<path d="M172.2 10.3375C171.196 10.3375 170.378 11.1565 170.378 12.16C170.378 13.1635 171.196 13.9825 172.2 13.9825C173.204 13.9825 174.022 13.1635 174.022 12.16C174.022 11.1565 173.204 10.3375 172.2 10.3375ZM177.666 12.16C177.666 11.4053 177.673 10.6575 177.63 9.90414C177.588 9.02914 177.388 8.25258 176.749 7.61274C176.107 6.97152 175.332 6.77328 174.457 6.7309C173.703 6.68852 172.955 6.69535 172.201 6.69535C171.447 6.69535 170.699 6.68852 169.946 6.7309C169.071 6.77328 168.294 6.97289 167.654 7.61274C167.013 8.25395 166.815 9.02914 166.772 9.90414C166.73 10.6588 166.737 11.4067 166.737 12.16C166.737 12.9133 166.73 13.6625 166.772 14.4159C166.815 15.2909 167.014 16.0674 167.654 16.7073C168.295 17.3485 169.071 17.5467 169.946 17.5891C170.7 17.6315 171.448 17.6247 172.201 17.6247C172.956 17.6247 173.704 17.6315 174.457 17.5891C175.332 17.5467 176.109 17.3471 176.749 16.7073C177.39 16.0661 177.588 15.2909 177.63 14.4159C177.674 13.6625 177.666 12.9147 177.666 12.16ZM172.2 14.9641C170.648 14.9641 169.396 13.7118 169.396 12.16C169.396 10.6082 170.648 9.3559 172.2 9.3559C173.752 9.3559 175.004 10.6082 175.004 12.16C175.004 13.7118 173.752 14.9641 172.2 14.9641ZM175.119 9.89594C174.757 9.89594 174.464 9.60336 174.464 9.24106C174.464 8.87875 174.757 8.58617 175.119 8.58617C175.481 8.58617 175.774 8.87875 175.774 9.24106C175.774 9.32709 175.757 9.41229 175.724 9.4918C175.691 9.5713 175.643 9.64354 175.582 9.70437C175.521 9.7652 175.449 9.81344 175.37 9.84631C175.29 9.87918 175.205 9.89605 175.119 9.89594Z" fill="#7F8C8D"/>
</svg>
